<svg width="181" height="31" viewBox="0 0 181 31" fill="none" xmlns="http://www.w3.org/2000/svg">
<rect width="181" height="31" fill="white"/>
<path d="M2.508 18.668H5.268V20H0.828V11.624H2.508V18.668ZM10.2238 20.084C9.43981 20.084 8.71981 19.9 8.06381 19.532C7.40781 19.164 6.88781 18.656 6.50381 18.008C6.11981 17.352 5.92781 16.612 5.92781 15.788C5.92781 14.972 6.11981 14.24 6.50381 13.592C6.88781 12.936 7.40781 12.424 8.06381 12.056C8.71981 11.688 9.43981 11.504 10.2238 11.504C11.0158 11.504 11.7358 11.688 12.3838 12.056C13.0398 12.424 13.5558 12.936 13.9318 13.592C14.3158 14.24 14.5078 14.972 14.5078 15.788C14.5078 16.612 14.3158 17.352 13.9318 18.008C13.5558 18.656 13.0398 19.164 12.3838 19.532C11.7278 19.9 11.0078 20.084 10.2238 20.084ZM10.2238 18.584C10.7278 18.584 11.1718 18.472 11.5558 18.248C11.9398 18.016 12.2398 17.688 12.4558 17.264C12.6718 16.84 12.7798 16.348 12.7798 15.788C12.7798 15.228 12.6718 14.74 12.4558 14.324C12.2398 13.9 11.9398 13.576 11.5558 13.352C11.1718 13.128 10.7278 13.016 10.2238 13.016C9.71981 13.016 9.27181 13.128 8.87981 13.352C8.49581 13.576 8.19581 13.9 7.97981 14.324C7.76381 14.74 7.65581 15.228 7.65581 15.788C7.65581 16.348 7.76381 16.84 7.97981 17.264C8.19581 17.688 8.49581 18.016 8.87981 18.248C9.27181 18.472 9.71981 18.584 10.2238 18.584ZM21.5897 14.144C21.3977 13.792 21.1337 13.524 20.7977 13.34C20.4617 13.156 20.0697 13.064 19.6217 13.064C19.1257 13.064 18.6857 13.176 18.3017 13.4C17.9177 13.624 17.6177 13.944 17.4017 14.36C17.1857 14.776 17.0777 15.256 17.0777 15.8C17.0777 16.36 17.1857 16.848 17.4017 17.264C17.6257 17.68 17.9337 18 18.3257 18.224C18.7177 18.448 19.1737 18.56 19.6937 18.56C20.3337 18.56 20.8577 18.392 21.2657 18.056C21.6737 17.712 21.9417 17.236 22.0697 16.628H19.1897V15.344H23.7257V16.808C23.6137 17.392 23.3737 17.932 23.0057 18.428C22.6377 18.924 22.1617 19.324 21.5777 19.628C21.0017 19.924 20.3537 20.072 19.6337 20.072C18.8257 20.072 18.0937 19.892 17.4377 19.532C16.7897 19.164 16.2777 18.656 15.9017 18.008C15.5337 17.36 15.3497 16.624 15.3497 15.8C15.3497 14.976 15.5337 14.24 15.9017 13.592C16.2777 12.936 16.7897 12.428 17.4377 12.068C18.0937 11.7 18.8217 11.516 19.6217 11.516C20.5657 11.516 21.3857 11.748 22.0817 12.212C22.7777 12.668 23.2577 13.312 23.5217 14.144H21.5897ZM28.8566 20.084C28.0726 20.084 27.3526 19.9 26.6966 19.532C26.0406 19.164 25.5206 18.656 25.1366 18.008C24.7526 17.352 24.5606 16.612 24.5606 15.788C24.5606 14.972 24.7526 14.24 25.1366 13.592C25.5206 12.936 26.0406 12.424 26.6966 12.056C27.3526 11.688 28.0726 11.504 28.8566 11.504C29.6486 11.504 30.3686 11.688 31.0166 12.056C31.6726 12.424 32.1886 12.936 32.5646 13.592C32.9486 14.24 33.1406 14.972 33.1406 15.788C33.1406 16.612 32.9486 17.352 32.5646 18.008C32.1886 18.656 31.6726 19.164 31.0166 19.532C30.3606 19.9 29.6406 20.084 28.8566 20.084ZM28.8566 18.584C29.3606 18.584 29.8046 18.472 30.1886 18.248C30.5726 18.016 30.8726 17.688 31.0886 17.264C31.3046 16.84 31.4126 16.348 31.4126 15.788C31.4126 15.228 31.3046 14.74 31.0886 14.324C30.8726 13.9 30.5726 13.576 30.1886 13.352C29.8046 13.128 29.3606 13.016 28.8566 13.016C28.3526 13.016 27.9046 13.128 27.5126 13.352C27.1286 13.576 26.8286 13.9 26.6126 14.324C26.3966 14.74 26.2886 15.228 26.2886 15.788C26.2886 16.348 26.3966 16.84 26.6126 17.264C26.8286 17.688 27.1286 18.016 27.5126 18.248C27.9046 18.472 28.3526 18.584 28.8566 18.584ZM47.2733 20H45.5933L41.7893 14.252V20H40.1093V11.612H41.7893L45.5933 17.372V11.612H47.2733V20ZM54.0695 18.404H50.7335L50.1815 20H48.4175L51.4295 11.612H53.3855L56.3975 20H54.6215L54.0695 18.404ZM53.6135 17.06L52.4015 13.556L51.1895 17.06H53.6135ZM66.6553 11.624V20H64.9753V14.552L62.7313 20H61.4593L59.2033 14.552V20H57.5233V11.624H59.4313L62.0953 17.852L64.7593 11.624H66.6553ZM69.9963 12.98V15.08H72.8163V16.412H69.9963V18.632H73.1763V20H68.3163V11.612H73.1763V12.98H69.9963Z" fill="black"/>
</svg>
